<?xml version="1.0" encoding="utf-8"?>
<!-- Generator: Adobe Illustrator 22.1.0, SVG Export Plug-In . SVG Version: 6.00 Build 0)  -->
<svg version="1.1" id="Layer_1" xmlns="http://www.w3.org/2000/svg" xmlns:xlink="http://www.w3.org/1999/xlink" x="0px" y="0px"
	 viewBox="0 0 117 38" style="enable-background:new 0 0 117 38;" xml:space="preserve">
<style type="text/css">
	.st0{fill:#FFFFFF;stroke:#FFFFFF;stroke-width:0.15;}
</style>
<g>
	<path d="M92.9,17.2c-5.2,0-9.4,4.2-9.4,9.4c0,0.4,0,0.8,0.1,1.2c0.6,4.7,4.5,8.3,9.3,8.3c4.9,0,9-3.8,9.4-8.6c0-0.3,0-0.5,0-0.8
		C102.4,21.4,98.2,17.2,92.9,17.2z M88.2,23.1l1.9,1.9c-0.1,0.3-0.3,0.5-0.3,0.8h-2.7C87.2,24.8,87.6,23.9,88.2,23.1z M87.1,27.5
		h2.7c0.1,0.3,0.2,0.6,0.3,0.8l-1.9,1.9C87.6,29.4,87.2,28.5,87.1,27.5z M92.1,32.5c-1-0.1-2-0.5-2.7-1.1l1.9-1.9
		c0.3,0.1,0.5,0.3,0.8,0.3V32.5z M92.1,23.5c-0.3,0.1-0.6,0.2-0.8,0.3l-1.9-1.9c0.8-0.6,1.7-1,2.8-1.1V23.5z M93.8,20.8
		c1,0.1,2,0.5,2.8,1.1l-1.9,1.9c-0.3-0.2-0.5-0.3-0.8-0.3V20.8z M93.8,32.5v-2.7c0.3-0.1,0.6-0.2,0.8-0.3l1.9,1.9
		C95.7,32,94.8,32.4,93.8,32.5z M97.7,30.2l-1.9-1.9c0.2-0.3,0.3-0.5,0.4-0.8h2.7C98.6,28.5,98.3,29.4,97.7,30.2z M96.1,25.8
		c-0.1-0.3-0.2-0.6-0.3-0.8l1.9-1.9c0.6,0.8,1,1.7,1.1,2.8L96.1,25.8L96.1,25.8z"/>
	<path d="M25.9,17.4c-5.2,0-9.4,4.2-9.4,9.4c0,0.4,0,0.8,0.1,1.2c0.6,4.6,4.5,8.3,9.4,8.3c4.9,0,9-3.8,9.4-8.6c0-0.3,0-0.5,0-0.8
		C35.3,21.7,31.1,17.4,25.9,17.4z M21.1,23.3l1.9,1.9c-0.1,0.3-0.3,0.5-0.3,0.8H20C20.1,25,20.5,24.1,21.1,23.3z M20,27.7h2.7
		c0.1,0.3,0.2,0.6,0.3,0.8l-1.9,1.9C20.5,29.7,20.1,28.7,20,27.7z M25,32.7c-1-0.1-2-0.5-2.7-1.1l1.9-1.9c0.3,0.1,0.5,0.3,0.8,0.3
		V32.7z M25,23.7c-0.3,0.1-0.6,0.2-0.8,0.3l-1.9-1.9c0.8-0.6,1.7-1,2.8-1.1V23.7z M26.7,21c1,0.1,2,0.5,2.8,1.1l-1.9,1.9
		c-0.3-0.2-0.5-0.3-0.8-0.3V21z M26.7,32.7V30c0.3-0.1,0.6-0.2,0.8-0.3l1.9,1.9C28.6,32.2,27.7,32.6,26.7,32.7z M30.6,30.5l-1.9-1.9
		c0.2-0.3,0.3-0.5,0.4-0.8h2.7C31.6,28.7,31.2,29.7,30.6,30.5z M29,26.1c-0.1-0.3-0.2-0.6-0.3-0.8l1.9-1.9c0.6,0.8,1,1.7,1.1,2.8
		L29,26.1L29,26.1z"/>
	<path d="M70,9.9c0,0-21-0.3-23.4-0.8c-2.4-0.4-8.3-1.2-9.8-1.7c-0.4-0.4-0.9-0.7-1.4-0.8c-4.6-1.1-9.4-1-13.9,0.1
		c0,0-0.3,3.6,14.7,3.8C49,10.9,74.4,12,74.4,12l-2.9-2.1L70,9.9z"/>
	<path d="M51.5,11.2l-0.3-0.6c0.7-1.3,0.9-2.9,0.5-4.4c-0.8-2.4-2.3-1.4-2.5-1.3c-0.2,0.8-0.4,1.5-0.6,2.3c-0.3,1.3-0.4,2.5-0.2,3.8
		l0,0l3.1,0.3V11.2z"/>
	<path d="M82.1,30.8c0,0.3-45.1,0-45.1,0S38.7,16.4,26,16.2C15.2,16,15.2,26.5,15.5,29.7c0,0.4-0.3,0.7-0.7,0.8c-0.1,0-0.1,0-0.2,0
		L3.6,28.4c-0.5-0.1-0.9-0.4-1.1-0.8l-0.8-1.7c-0.2-0.5-0.2-1,0-1.5l0,0c0.4-0.6,0.5-1.3,0.4-2l-0.4-3.5c-0.1-1.1,0.2-2.2,0.8-3.1
		c0.7-1,1.6-1.8,2.7-2.4c0,0-0.6-0.6,1.4-1.3c2-0.7,11.9-4.8,11.9-4.8l4.1-0.8c0,0-2,0.6,0,1.8c2,1.1,13.4,2.5,15.1,2.5
		c1.7,0,36.7,1.3,36.7,1.3s-7.9-5.9-11.1-7.6c0,0-1.8-0.8-0.9-2.1L63.3,1l1.6,0.7l-1,1.4l12.3,8.5c0,0,7.3-0.6,6.4-1.2
		c-0.3-0.2,0.6,0.3,0.6,0.3s19.7,0.7,24.2,5.1c0,0,6.1,1.8,7.8,4.1c1.7,2.3,0.3,6.6,0.3,6.6c0.4,0.4,0.6,1,0.5,1.6
		c-0.1,1-6.2,3.1-13,3.4c0,0,3.5-13.4-7.8-15.3C84,14.5,81.5,25.3,82.1,30.8z"/>
	<path d="M112.2,22.9h1.7c0.4,0,0.7,0.3,0.7,0.7c0,0,0,0,0,0l-0.3,2.7c0,0.4-0.3,0.8-0.7,0.9l-0.7,0.2
		C112.5,26,112.2,24.4,112.2,22.9z"/>
	<path d="M13.3,15.5c-0.6,0.6-1.3,1-2.1,1.3c-2.5,0.1-5,0-7.4-0.4c-0.6-0.5-0.6-1.4-0.1-2c0,0,0-0.1,0.1-0.1c0.5-0.4,1-0.7,1.5-1
		C5.5,13.8,6,14,6.5,14.1C7.5,14.5,13.3,15.5,13.3,15.5z"/>
	<path d="M64.8,1.6c0,0,16.6,7.6,18.4,9.2c-2.3,0.4-4.6,0.7-7,0.8L64,3.6c-0.3-0.2-0.3-0.5-0.2-0.8c0,0,0,0,0,0L64.8,1.6z"/>
	<path d="M11.3,26.8l-3.5-0.4c-0.2,0-0.4,0.1-0.4,0.4c0,0.1,0,0.2,0.1,0.3l1.1,1.4c0.1,0.1,0.2,0.1,0.2,0.1l3.5,0.5
		c0.2,0,0.4-0.1,0.5-0.3c0-0.1,0-0.2-0.1-0.3l-1.2-1.5C11.5,26.9,11.4,26.8,11.3,26.8z"/>
	<path d="M101.4,13.2c0,0,3.7,5,8.4,5.9c0.2,0,0.3-0.1,0.4-0.3c0-0.1,0-0.2,0-0.2c-0.8-1-1.7-2-2.7-2.7
		C105.8,14.4,103.6,13.4,101.4,13.2z"/>
	<g>
		<path class="st0" d="M78.5,28.3L78.5,28.3c0.5-3.9,0.8-7.9,0.8-11.8c-0.2-3-6-4.6-6.2-4.7v0c1,0.4,2,0.7,3,1.2
			c1.4,0.8,3,1.9,3.1,3.5C79.2,20.5,78.9,24.4,78.5,28.3l-24-0.6c0,0-4.7,0-7.8-6c-3.4-6.5-3-8.5-1-10.6l0.2-0.2
			c-2.4,2.4-2.4,5,0.7,10.9c1.1,2.3,2.9,4.2,5.2,5.3c0.9,0.4,1.8,0.7,2.8,0.7L78.5,28.3z"/>
		<path class="st0" d="M21.9,17v-0.1c0,0-9.4-1.5-13.1-2.2c-3.7-0.7-3.7-1.5-3.7-1.5H5c0,0.1,0.1,1,3.8,1.6
			C12.5,15.5,21.8,17,21.9,17z"/>
		<polygon class="st0" points="78.4,28.3 78.4,28.2 82.1,28.3 82.1,28.4 		"/>
		<path class="st0" d="M100,18.8h6.5c0.3,0,0.6,0,0.8-0.2c0.1-0.1,0.1-0.2,0.1-0.3h-0.1c0,0,0,0.1,0,0.2c-0.2,0.1-0.5,0.2-0.7,0.2
			H100V18.8z"/>
		<path class="st0" d="M11.9,12.4c1.6,0,7.3-0.2,12.5-0.4c4-0.2,7.5-0.3,8.4-0.3c1.2,0.1,2.3-0.4,3.1-1.2l0,0
			c-0.8,0.8-2,1.2-3.1,1.1l-8.3,0.3c-5.7,0.2-12.6,0.5-13,0.5c-0.9-0.2-1.2-0.9-1.3-1.9H10c0.2,1.1,0.5,1.9,1.4,2L11.9,12.4z"/>
	</g>
	<path d="M72.8,12.8c0.1,0,0.2-0.1,0.3-0.2c0.1-0.2,0-0.4-0.1-0.5l-3.3-1.7c-0.2-0.1-0.4,0-0.5,0.1c0,0,0,0,0,0
		c-0.1,0.2,0,0.4,0.2,0.5l3.3,1.8C72.7,12.9,72.7,12.9,72.8,12.8z"/>
	<path d="M66.8,9.6C67,8.8,68,8.4,68.9,8.7c0.9,0.3,1.4,1.1,1.2,1.9c-0.2,0.8-1.2,1.2-2.1,0.9C67.1,11.2,66.5,10.3,66.8,9.6z"/>
	<line class="st0" x1="35.9" y1="10.5" x2="73.3" y2="11.9"/>
</g>
</svg>
