<?xml version="1.0" encoding="utf-8"?>
<!-- Generator: Adobe Illustrator 22.1.0, SVG Export Plug-In . SVG Version: 6.00 Build 0)  -->
<svg version="1.1" id="Layer_1" xmlns="http://www.w3.org/2000/svg" xmlns:xlink="http://www.w3.org/1999/xlink" x="0px" y="0px"
	 viewBox="0 0 119 44" style="enable-background:new 0 0 119 44;" xml:space="preserve">
<style type="text/css">
	.st0{fill:#FFFFFF;}
	.st1{fill:#FFFFFF;stroke:#FFFFFF;stroke-width:0.15;}
</style>
<g>
	<path d="M24.2,24.2c-5.2,0-9.4,4.2-9.4,9.4c0,0.4,0,0.8,0.1,1.2c0.6,4.6,4.5,8.2,9.3,8.2c4.9,0,8.9-3.8,9.3-8.6c0-0.3,0-0.5,0-0.8
		C33.6,28.4,29.4,24.2,24.2,24.2z M19.5,30l1.9,1.9c-0.1,0.3-0.3,0.5-0.3,0.8h-2.7C18.5,31.8,18.9,30.8,19.5,30z M18.4,34.4h2.7
		c0.1,0.3,0.2,0.6,0.3,0.8l-1.9,1.9C18.9,36.4,18.5,35.4,18.4,34.4z M23.4,39.4c-1-0.1-1.9-0.5-2.7-1.1l1.9-1.9
		c0.3,0.1,0.5,0.3,0.8,0.3V39.4z M23.4,30.5c-0.3,0.1-0.6,0.2-0.8,0.3l-1.9-1.9c0.8-0.6,1.7-1,2.7-1.1V30.5z M25,27.8
		c1,0.1,2,0.5,2.7,1.1l-1.9,1.9c-0.3-0.2-0.5-0.3-0.8-0.3V27.8z M25,39.4v-2.7c0.3-0.1,0.6-0.2,0.8-0.3l1.9,1.9
		C27,38.9,26.1,39.3,25,39.4z M28.9,37.2L27,35.2c0.1-0.3,0.3-0.5,0.3-0.8h2.7C29.9,35.4,29.5,36.4,28.9,37.2z M27.4,32.8
		c-0.1-0.3-0.2-0.6-0.3-0.8l1.9-1.9c0.6,0.8,1,1.7,1.1,2.7L27.4,32.8L27.4,32.8z"/>
	<path d="M96.4,24.2c-5.2,0-9.4,4.2-9.4,9.4c0,0.4,0,0.8,0.1,1.2c0.6,4.6,4.5,8.2,9.3,8.2c4.9,0,8.9-3.8,9.4-8.6c0-0.3,0-0.5,0-0.8
		C105.8,28.4,101.6,24.2,96.4,24.2z M91.7,30l1.9,1.9c-0.1,0.3-0.3,0.5-0.3,0.8h-2.7C90.7,31.8,91.1,30.8,91.7,30z M90.6,34.4h2.7
		c0.1,0.3,0.2,0.6,0.3,0.8l-1.9,1.9C91.1,36.4,90.7,35.4,90.6,34.4z M95.6,39.4c-1-0.1-1.9-0.5-2.7-1.1l1.9-1.9
		c0.2,0.1,0.5,0.3,0.8,0.3V39.4z M95.6,30.5c-0.3,0.1-0.6,0.2-0.8,0.3l-1.9-1.9c0.8-0.6,1.7-1,2.7-1.1V30.5z M97.2,27.8
		c1,0.1,2,0.5,2.7,1.1l-1.9,1.9c-0.3-0.2-0.5-0.3-0.8-0.3V27.8z M97.2,39.4v-2.7c0.3-0.1,0.6-0.2,0.8-0.3l1.9,1.9
		C99.2,38.9,98.2,39.3,97.2,39.4z M101.1,37.2l-1.9-1.9c0.1-0.3,0.3-0.5,0.4-0.8h2.7C102.1,35.4,101.7,36.4,101.1,37.2z M99.5,32.8
		c-0.1-0.3-0.2-0.6-0.3-0.8l1.9-1.9c0.6,0.8,1,1.7,1.1,2.7L99.5,32.8L99.5,32.8z"/>
	<path d="M99.4,18c3.3,0.9,6.5,2.4,9.2,4.5c1.1,0.8,2.4,1.4,3.7,1.8c0.4,0.2,0.9,0.3,1.4,0.2c0.3-0.3,0.4-2.8-2.5-4.1
		C107.6,18.7,103.5,17.9,99.4,18z"/>
	<g>
		<g>
			<path d="M115.7,23.4c-0.7-1.4-1.7-2.6-3-3.5c-3.5-2.2-19.2-5.3-19.2-5.3S74.8,1.4,56.1,0.9C43.5,0.5,30.8,1,18.2,2.3
				c-1.7,0.2-3.3,0.6-4.9,1.1c-2.4,2.3-4.6,4.8-6.6,7.4c-2.1,3-2.9,11.8-2.9,11.8s-4,5.4-1.5,8.7c2.5,3.3,11.4,3.1,11.4,3.1
				S12.9,23,24,23c11.1,0,11,12.2,11,12.2l51.3,0.7c0,0-1.6-12.5,10-12.5c11.6,0,10.5,12.5,10.5,12.5c3.1,0.3,6.3,0.1,9.4-0.5
				c0.7-0.1,1.2-0.7,1.2-1.4v-3.8C117.3,27.8,116.8,25.5,115.7,23.4z M92.7,16.2c-0.1,0.1-0.2,0.2-0.3,0.2c-12.6-1.1-36.2-3-36.2-3
				l-31-1.9c-0.5,0-1-0.3-1.4-0.8l-4.3-5.5c-0.1-0.2-0.1-0.4,0.1-0.5c0.1,0,0.1-0.1,0.2-0.1c3.6-0.4,20.8-1.9,34.6-2
				c17.7,0,33.9,10.2,38.3,13.1C92.8,15.8,92.8,16.1,92.7,16.2z"/>
		</g>
	</g>
	<polygon points="53.7,2.4 53.3,13.3 59,13.7 56.7,2.2 	"/>
	<path d="M110,30c-0.5,0.7-0.9,1.4-1.3,2.1c-0.2,0.4-0.1,1,0.3,1.2c0.1,0.1,0.3,0.1,0.4,0.1h4.4c0,0,0.4-2.5-0.7-3
		C112.2,30.1,111.1,29.9,110,30z"/>
	<path d="M5.7,12.9H17c0.4,0.4,0.4,1.1,0,1.5c-0.1,0.1-0.1,0.1-0.2,0.2l0,0L4.5,18C4,16.2,4.5,14.3,5.7,12.9z"/>
	<path d="M2.6,27.9h1.4c0.7,0,1.4,0.3,1.9,0.8l0.3,0.3c0.1,0.1,0.1,0.3,0,0.4c0,0-0.1,0.1-0.2,0.1H2.6V27.9z"/>
	<g>
		<polygon points="77.1,9.2 73.7,14.8 81.6,15.5 		"/>
	</g>
	<path class="st0" d="M83.8,34.6l0.2-9.7c0.1-4-1.2-8-3.6-11.2l-5.1-6.9h-0.1l5.1,6.9c2.4,3.2,3.6,7.1,3.6,11.1l-0.2,9.5l-46.3-0.6
		c-0.1-2.6-0.9-5.1-2.3-7.3c-1.2-1.8-2.5-3.4-4.1-4.9c-1.3-1.2-2.2-2.8-2.6-4.6c0-1.2,0.2-2.3,0.7-3.4L32,3.6h-0.1L29,13.6
		c-0.5,1.1-0.8,2.3-0.7,3.5c0.4,1.8,1.3,3.4,2.6,4.7c5.5,5.3,6.3,9.9,6.3,12.1l0,0l0,0L83.8,34.6z"/>
	<path d="M73,12.6c0.1-1.1,1.1-1.8,2.4-1.8c1.3,0.1,2.2,1,2.1,2.1c-0.1,1.1-1.1,1.8-2.4,1.8C73.9,14.5,73,13.6,73,12.6z"/>
	<path d="M16,5l-6.5,6.4L6.1,12c0,0,4.4-6.8,7.2-8.5L16,5z"/>
	<polygon points="32.1,3.2 29.7,11.9 32.1,12.1 33.4,3 	"/>
	<polygon points="75.2,6.6 81.6,15.5 84.6,16 76,6.6 	"/>
	<path d="M58,2.9V2.7c-1.8-0.2-5.4-0.1-5.5-0.1v0.1C52.5,2.7,56.2,2.7,58,2.9z"/>
	<polygon class="st1" points="55.2,2.7 55.3,2.7 56.8,34.2 56.7,34.2 	"/>
</g>
</svg>
