<?xml version="1.0" encoding="utf-8"?>
<!-- Generator: Adobe Illustrator 22.1.0, SVG Export Plug-In . SVG Version: 6.00 Build 0)  -->
<svg version="1.1" id="Layer_1" xmlns="http://www.w3.org/2000/svg" xmlns:xlink="http://www.w3.org/1999/xlink" x="0px" y="0px"
	 viewBox="0 0 119 41" style="enable-background:new 0 0 119 41;" xml:space="preserve">
<style type="text/css">
	.st0{fill:#FFFFFF;}
</style>
<g>
	<path d="M24.7,22c-5,0-9,4-9,9c0,0.4,0,0.8,0.1,1.1c0.6,4.4,4.3,7.9,8.9,7.9c4.7,0,8.6-3.6,9-8.2c0-0.3,0-0.5,0-0.8
		C33.7,26,29.7,22,24.7,22z M20.2,27.6l1.8,1.8c-0.1,0.2-0.3,0.5-0.3,0.8h-2.6C19.3,29.3,19.7,28.4,20.2,27.6z M19.1,31.8h2.6
		c0.1,0.3,0.2,0.5,0.3,0.8l-1.8,1.8C19.7,33.7,19.3,32.8,19.1,31.8z M23.9,36.6c-1-0.1-1.9-0.5-2.6-1.1l1.8-1.8
		c0.2,0.1,0.5,0.2,0.8,0.3V36.6z M23.9,28c-0.3,0.1-0.5,0.2-0.8,0.3l-1.8-1.8c0.8-0.6,1.6-1,2.6-1.1V28z M25.5,25.4
		c1,0.1,1.9,0.5,2.6,1.1l-1.8,1.8c-0.2-0.1-0.5-0.3-0.8-0.3V25.4z M25.5,36.6V34c0.3-0.1,0.5-0.2,0.8-0.3l1.8,1.8
		C27.4,36.1,26.5,36.4,25.5,36.6z M29.2,34.4l-1.8-1.8c0.1-0.2,0.3-0.5,0.3-0.8h2.6C30.2,32.8,29.8,33.7,29.2,34.4z M27.7,30.2
		c-0.1-0.3-0.2-0.5-0.3-0.8l1.8-1.8c0.6,0.8,0.9,1.6,1.1,2.6L27.7,30.2L27.7,30.2z"/>
	<path d="M97.6,21.8c-5,0-9,4-9,9c0,0.4,0,0.8,0.1,1.1c0.6,4.4,4.3,7.9,8.9,7.9c4.7,0,8.6-3.6,9-8.2c0-0.3,0-0.5,0-0.8
		C106.5,25.8,102.5,21.8,97.6,21.8z M93.1,27.4l1.8,1.8c-0.1,0.2-0.3,0.5-0.3,0.8H92C92.1,29,92.5,28.2,93.1,27.4z M92,31.6h2.6
		c0.1,0.3,0.2,0.5,0.3,0.8l-1.8,1.8C92.5,33.5,92.1,32.6,92,31.6z M96.8,36.4c-1-0.1-1.9-0.5-2.6-1.1l1.8-1.8
		c0.2,0.1,0.5,0.2,0.8,0.3V36.4z M96.8,27.8c-0.3,0.1-0.5,0.2-0.8,0.3l-1.8-1.8c0.8-0.6,1.6-1,2.6-1.1V27.8z M98.3,25.2
		c1,0.1,1.9,0.5,2.6,1.1l-1.8,1.8c-0.2-0.1-0.5-0.3-0.8-0.3V25.2z M98.3,36.4v-2.6c0.3-0.1,0.5-0.2,0.8-0.3l1.8,1.8
		C100.2,35.9,99.3,36.2,98.3,36.4z M102.1,34.2l-1.8-1.8c0.1-0.2,0.3-0.5,0.3-0.8h2.6C103,32.6,102.6,33.5,102.1,34.2z M100.6,30
		c-0.1-0.3-0.2-0.5-0.3-0.8l1.8-1.8c0.6,0.8,0.9,1.6,1.1,2.6L100.6,30L100.6,30z"/>
	<path d="M100.9,16.5c4,0.6,7.7,2.3,10.8,4.9c0,0,3.5,1.3,3.9,1c0.4-0.3,0.4-2.5-2.5-3.9C109.2,16.9,105,16.2,100.9,16.5z"/>
	<path d="M79.7,10.1c1.5,0.2,2.5,1.1,2.4,2.2c-0.1,1.1-1.4,1.8-2.8,1.7c-0.4-0.1-0.9-0.2-1.3-0.4l0.4-3.4
		C78.9,10.1,79.3,10,79.7,10.1z"/>
	<g>
		<g>
			<path d="M117.2,22.5c-0.4-3.1-5.5-6.7-17.5-8.5c-12-1.8-17.6-5.6-17.6-5.6C61.3-2.1,45.9,0.9,33.9,2.9c-7.9,1.4-15.6,3.7-23,6.8
				c-2.3,0.2-4.5,0.5-6.8,1c-0.4,0.3,0.2,0.9,0.2,0.9l-0.7,7.3c-1.3,1.6-2.1,3.6-2.1,5.7c0,1,0,2,0.1,3.1c0.1,0.5,0.3,0.9,0.5,1.3
				c0.7,1.2,2,2,3.4,2.3l8.7,1.3c0,0,0,0,0,0c0.2,0,0.3-0.1,0.3-0.3c-0.1-0.6-0.1-1.1-0.1-1.7c0-5.8,4.7-10.4,10.4-10.4
				c5.8,0,10.4,4.7,10.4,10.4c0,0.9-0.1,1.8-0.3,2.7c0,0,0,0,0,0c0,0.1,0.1,0.2,0.2,0.2l52.5,0.8c0-0.1,0-0.2,0-0.2
				c-0.4-1.2-0.6-2.6-0.6-3.9c0.1-5.8,4.8-10.4,10.6-10.3c5.8,0.1,10.4,4.8,10.3,10.6c0,0.7-0.1,1.5-0.3,2.2v0.1c0,0,0,0,0,0
				c0,0.3,0.2,0.6,0.5,0.6c1.4,0,4.5-0.2,6.9-0.4c1.6-0.1,2.9-1.5,2.8-3.2C117.8,27.5,117.6,25,117.2,22.5z M57.6,12.3l-30.7-1.6
				l-4.6-2.1c0,0,16.8-6.5,32.7-6.1c15.8,0.4,33.2,11.6,33.2,11.6C79.1,14.7,57.6,12.3,57.6,12.3z"/>
		</g>
	</g>
	<polygon points="50.6,2.1 51.1,12.2 56,12.5 53.1,2.1 	"/>
	<path d="M111.7,28c-0.5,0.7-1,1.4-1.3,2.2c-0.2,0.4-0.1,1,0.3,1.2c0.1,0.1,0.3,0.1,0.5,0.1h4.5c0,0,0.4-2.5-0.7-3.1
		C113.9,28.1,112.8,27.9,111.7,28z"/>
	<path d="M4.2,12.9h10.6c0.4,0.4,0.4,1-0.1,1.4c-0.1,0.1-0.1,0.1-0.2,0.1l0,0L3.7,17.8C2.8,16.3,3,14.3,4.2,12.9z"/>
	<path d="M1.5,24.3h1c0.5,0,1,0.2,1.3,0.6l0.2,0.2c0.1,0.1,0.1,0.2,0,0.2c0,0-0.1,0-0.1,0H1.5V24.3z"/>
	<path class="st0" d="M84.9,32.7L84.9,32.7l1-13.1l0,0l-3.4-8.6h-0.1l3.3,8.5l-1,13.1l-47.4-0.6c0.2-3.5-0.9-6.9-2.9-9.7
		c-2.1-2.7-5.3-4.2-8.7-4.2c-0.9-0.9-1.4-2.2-1.4-3.5c0.2-1.3,0.9-2.6,1.9-3.4l0.6-0.4l-0.2,0l-0.6,0.4c-1.1,0.8-1.8,2.1-1.9,3.5
		c-0.1,1.4,0.4,2.7,1.4,3.6l0,0c3.3,0,6.5,1.5,8.6,4.1c2,2.8,3.1,6.2,2.9,9.7l0,0l0,0L84.9,32.7z"/>
	<path d="M49.7,2.7l2.1-0.1h1.8V2.5h-1.8l-2.1,0.1V2.7z"/>
	<path class="st0" d="M53.5,32.2h0.1V16.4c0-1.6-0.1-3.2-0.3-4.8l-1.3-9.1h-0.1l1.3,9.1c0.2,1.6,0.4,3.2,0.4,4.8V32.2z"/>
	<g>
		<polygon points="78.4,8.9 79,14.1 88.2,14.1 		"/>
	</g>
	<path d="M77.2,11.5c0.1-1.1,1.2-1.9,2.5-1.8c1.3,0.1,2.3,1,2.2,2.1c-0.1,1.1-1.2,1.9-2.5,1.8C78.1,13.5,77.1,12.6,77.2,11.5z"/>
</g>
</svg>
