<?xml version="1.0" encoding="utf-8"?>
<!-- Generator: Adobe Illustrator 22.1.0, SVG Export Plug-In . SVG Version: 6.00 Build 0)  -->
<svg version="1.1" id="Layer_1" xmlns="http://www.w3.org/2000/svg" xmlns:xlink="http://www.w3.org/1999/xlink" x="0px" y="0px"
	 viewBox="0 0 118 39" style="enable-background:new 0 0 118 39;" xml:space="preserve">
<style type="text/css">
	.st0{fill:#FFFFFF;stroke:#FFFFFF;stroke-width:0.15;}
	.st1{fill:none;stroke:#000000;}
	.st2{fill:#FFFFFF;}
</style>
<g>
	<g>
		<g>
			<path d="M116.8,21.8c-0.3-2.5-4.3-5.2-13.1-8.2c-9.6-3.4-26.9-3.4-26.9-3.4S67,3.5,60.3,1.9c-5.8-1.3-11.8-1.4-17.6-0.3
				C35,3,18.8,6.6,12.1,8.7c-6.7,2.1-9.5,5.8-10.6,13.6c-1.1,7.8,10,8.8,10,8.8C10.8,28.7,11,26,12,23.6c2.4-5.8,9.1-8.5,14.9-6.1
				c5.8,2.4,8.5,9.1,6.1,14.9L85.8,33c-1.2-2.9-1.2-6.2,0.1-9.2c2.6-6.1,9.6-8.9,15.6-6.4c6.1,2.6,8.9,9.6,6.3,15.6
				c2.7-0.4,5.3-1.1,7.8-2c1.3-0.8,0.9-2,0.7-3.1C116.2,26.9,117,23.3,116.8,21.8z M41.8,10.7c-3.2-0.5-6.3-1.3-9.3-2.5
				c-0.5-0.7-1-1.5-1.3-2.4C55-3,67.1,4.5,73.4,10.1l0.5,0.6C73.9,10.7,44.2,10.9,41.8,10.7z"/>
		</g>
	</g>
	<path d="M22.7,18.6c-5.4,0-9.7,4.3-9.7,9.7c0,0.4,0,0.8,0.1,1.2c0.6,4.8,4.7,8.5,9.6,8.5c5.1,0,9.2-3.9,9.7-8.9c0-0.3,0-0.5,0-0.8
		C32.4,23,28,18.6,22.7,18.6z M17.8,24.7l2,2c-0.2,0.3-0.3,0.5-0.4,0.9h-2.8C16.8,26.4,17.2,25.5,17.8,24.7z M16.7,29.2h2.8
		c0.1,0.3,0.2,0.6,0.4,0.8l-2,2C17.2,31.2,16.8,30.2,16.7,29.2z M21.8,34.3c-1.1-0.1-2-0.6-2.8-1.2l2-2c0.3,0.2,0.5,0.3,0.8,0.3
		V34.3z M21.8,25.1c-0.3,0.1-0.6,0.2-0.9,0.4l-2-2c0.8-0.6,1.8-1,2.8-1.2V25.1z M23.5,22.3c1.1,0.1,2,0.6,2.8,1.2l-2,2
		c-0.3-0.2-0.6-0.3-0.9-0.4V22.3z M23.5,34.3v-2.8c0.3-0.1,0.6-0.2,0.8-0.3l2,2C25.5,33.8,24.6,34.2,23.5,34.3z M27.5,32l-2-2
		c0.2-0.3,0.3-0.5,0.4-0.8h2.8C28.5,30.2,28.2,31.2,27.5,32z M25.9,27.5c-0.1-0.3-0.2-0.6-0.4-0.9l2-2c0.6,0.8,1,1.8,1.2,2.8
		L25.9,27.5L25.9,27.5z"/>
	<path d="M96.9,18.4c-5.4,0-9.7,4.3-9.7,9.7c0,0.4,0,0.8,0.1,1.2c0.6,4.8,4.7,8.5,9.6,8.5c5.1,0,9.2-3.9,9.6-8.9c0-0.3,0-0.5,0-0.8
		C106.6,22.7,102.2,18.4,96.9,18.4z M92,24.4l2,2c-0.2,0.3-0.3,0.5-0.4,0.9h-2.8C91,26.2,91.4,25.2,92,24.4z M90.8,28.9h2.8
		c0.1,0.3,0.2,0.6,0.4,0.8l-2,2C91.4,30.9,91,30,90.8,28.9z M96,34.1c-1.1-0.1-2-0.6-2.8-1.2l2-2c0.3,0.2,0.5,0.3,0.8,0.3V34.1z
		 M96,24.9c-0.3,0.1-0.6,0.2-0.9,0.4l-2-2c0.8-0.6,1.8-1,2.8-1.2V24.9z M97.7,22.1c1.1,0.1,2,0.6,2.8,1.2l-2,2
		c-0.3-0.2-0.6-0.3-0.9-0.4V22.1z M97.7,34.1v-2.8c0.3-0.1,0.6-0.2,0.8-0.3l2,2C99.7,33.5,98.8,33.9,97.7,34.1z M101.7,31.8l-2-2
		c0.2-0.3,0.3-0.5,0.4-0.8h2.8C102.7,30,102.3,31,101.7,31.8z M100.1,27.3c-0.1-0.3-0.2-0.6-0.3-0.9l2-2c0.6,0.8,1,1.8,1.2,2.8
		L100.1,27.3L100.1,27.3z"/>
	<path d="M4.1,29.9h2.6l-1-3.1H2.6l0.2,2.1C2.9,29.5,3.5,29.9,4.1,29.9z"/>
	<path class="st0" d="M75.8,30L75.8,30c0.4-0.3,0.8-2.7,1.1-7c0.5-4.4-0.7-8.7-3.2-12.3l-0.1,0.1c2.5,3.6,3.6,7.9,3.2,12.2
		c-0.5,6.6-1,6.9-1.1,6.9l-27.9-0.6c-1.3-0.1-2.5-0.7-3.3-1.7C43,25.7,40,20.9,38.7,9.9h-0.2c1.4,11,4.3,15.9,6,17.8
		c0.9,1,2.1,1.6,3.5,1.6L75.8,30L75.8,30z"/>
	<path d="M110.3,21.4c1.6,0.5,2.7,2,2.7,3.6c0.2,3.3,0.9,3.4,1.4,3.6c0,0-0.8-0.5-0.9-4.5c0-0.8-0.4-1.5-0.9-2
		C112,21.6,111.2,21.3,110.3,21.4z"/>
	<path d="M115.6,19.7l-5-0.5c0,0-1-2.1-10.3-6.6c3.7,0.9,7.4,2.2,10.7,4.1C112.8,17.4,114.3,18.4,115.6,19.7z"/>
	<path class="st1" d="M15.8,10.3c-2.2,0.8-4.3,1.7-6.3,2.8c-0.2,0.1-0.4,0.5-0.1,0.6l1.2,0.7c0.2,0.1,0.3,0.2,0.2,0.4
		c0,0.1-0.1,0.2-0.2,0.2l-0.9,0.5c-0.5,0.3-1,0.4-1.6,0.4l-4.4-0.2c1-2.1,2.6-3.9,4.7-5.1c2.6-0.5,5.4-0.6,8-0.1
		C16,10.3,15.9,10.3,15.8,10.3z"/>
	<path class="st2" d="M16.9,18.1V18c0,0-6.2-3.7-7.5-4.4c0,0-0.2,0-0.2-0.2s0-0.3,0.9-0.7C16.9,9.8,24,7.5,31.3,6V5.9
		C24,7.4,16.9,9.7,10.1,12.7c-0.7,0.3-1,0.6-1,0.8c0,0.2,0.2,0.3,0.2,0.3C10.6,14.5,16.8,18,16.9,18.1z"/>
	
		<rect x="80.2" y="25.3" transform="matrix(3.174740e-02 -0.9995 0.9995 3.174740e-02 47.6804 109.3888)" width="0.2" height="9.6"/>
	<path d="M41.7,2.6c0,0-1.3,5.5,1.5,8.5c-1.5-0.1-3-0.3-4.4-0.7c-0.5-2.3-0.7-4.6-0.7-7L41.7,2.6z"/>
	<path d="M69.8,7.3l-1.2,3.4h5.3C72.8,9.4,71.4,8.2,69.8,7.3z"/>
	<path d="M66,8.7c0.1-0.9,1.2-1.5,2.3-1.3c1.2,0.2,2,1,1.9,1.9c-0.1,0.9-1.2,1.5-2.3,1.3C66.7,10.4,65.8,9.6,66,8.7z"/>
</g>
</svg>
