<svg height="682pt" viewBox="-21 -21 682 682.66669" width="682pt" xmlns="http://www.w3.org/2000/svg" fill="rgba(0,0,0,1)"><path d="m569.578125 463.832031v-287.664062c40.140625-8.632813 70.320313-44.40625 70.320313-87.089844 0-49.117187-39.957032-89.078125-89.078126-89.078125-49.113281 0-89.074218 39.960938-89.074218 89.078125 0 42.683594 30.179687 78.457031 70.324218 87.089844v137.585937h-193.261718v-137.585937c40.144531-8.632813 70.324218-44.40625 70.324218-87.089844 0-49.117187-39.957031-89.078125-89.078124-89.078125-49.117188 0-89.070313 39.960938-89.070313 89.078125 0 42.683594 30.179687 78.457031 70.320313 87.089844v137.585937h-193.226563v-137.585937c40.144531-8.632813 70.328125-44.40625 70.328125-87.089844 0-49.117187-39.960938-89.078125-89.078125-89.078125s-89.078125 39.960938-89.078125 89.078125c0 42.683594 30.179688 78.457031 70.328125 87.089844v156.335937c0 10.355469 8.394531 18.75 18.75 18.75h211.976563v112.578125c-40.140626 8.632813-70.320313 44.40625-70.320313 87.089844 0 49.117187 39.953125 89.078125 89.070313 89.078125 49.121093 0 89.078124-39.960938 89.078124-89.078125 0-42.683594-30.179687-78.457031-70.324218-87.089844v-112.578125h193.261718v112.578125c-40.140624 8.632813-70.324218 44.40625-70.324218 87.089844 0 49.117187 39.960937 89.078125 89.074218 89.078125 49.121094 0 89.078126-39.960938 89.078126-89.078125 0-42.683594-30.179688-78.457031-70.320313-87.089844zm0 0"/></svg>