<?xml version="1.0" encoding="utf-8"?>
<!-- Generator: Adobe Illustrator 22.1.0, SVG Export Plug-In . SVG Version: 6.00 Build 0)  -->
<svg version="1.1" id="Layer_1" xmlns="http://www.w3.org/2000/svg" xmlns:xlink="http://www.w3.org/1999/xlink" x="0px" y="0px"
	 viewBox="0 0 117 46" style="enable-background:new 0 0 117 46;" xml:space="preserve">
<style type="text/css">
	.st0{fill:#FFFFFF;}
</style>
<g>
	<path d="M18.8,26.7c-5.1,0-9.3,4.2-9.3,9.3c0,0.4,0,0.8,0.1,1.2c0.6,4.6,4.5,8.1,9.2,8.1c4.9,0,8.9-3.7,9.3-8.5c0-0.3,0-0.5,0-0.8
		C28.1,30.8,23.9,26.7,18.8,26.7z M14.1,32.5l1.9,1.9c-0.1,0.3-0.3,0.5-0.3,0.8H13C13.1,34.2,13.5,33.2,14.1,32.5z M13,36.8h2.7
		c0.1,0.3,0.2,0.6,0.3,0.8l-1.9,1.9C13.5,38.7,13.1,37.8,13,36.8z M18,41.7c-1-0.1-1.9-0.5-2.7-1.1l1.9-1.9c0.2,0.1,0.5,0.3,0.8,0.3
		V41.7z M18,32.9c-0.3,0.1-0.6,0.2-0.8,0.3l-1.9-1.9c0.8-0.6,1.7-1,2.7-1.1V32.9z M19.6,30.2c1,0.1,1.9,0.5,2.7,1.1l-1.9,1.9
		c-0.3-0.2-0.5-0.3-0.8-0.3V30.2z M19.6,41.7v-2.7c0.3-0.1,0.6-0.2,0.8-0.3l1.9,1.9C21.5,41.2,20.6,41.6,19.6,41.7z M23.4,39.5
		l-1.9-1.9c0.1-0.3,0.3-0.5,0.3-0.8h2.7C24.4,37.8,24,38.7,23.4,39.5z M21.9,35.2c-0.1-0.3-0.2-0.6-0.3-0.8l1.9-1.9
		c0.6,0.8,1,1.7,1.1,2.7L21.9,35.2L21.9,35.2z"/>
	<path d="M94.8,26.7c-5.1,0-9.3,4.2-9.3,9.3c0,0.4,0,0.8,0.1,1.2c0.6,4.6,4.5,8.1,9.2,8.1c4.9,0,8.9-3.7,9.3-8.5c0-0.3,0-0.5,0-0.8
		C104.1,30.8,100,26.7,94.8,26.7z M90.2,32.5l1.9,1.9c-0.1,0.3-0.3,0.5-0.3,0.8h-2.7C89.2,34.2,89.6,33.2,90.2,32.5z M89,36.8h2.7
		c0.1,0.3,0.2,0.6,0.3,0.8l-1.9,1.9C89.6,38.7,89.2,37.8,89,36.8z M94,41.7c-1-0.1-1.9-0.5-2.7-1.1l1.9-1.9c0.2,0.1,0.5,0.3,0.8,0.3
		V41.7z M94,32.9c-0.3,0.1-0.6,0.2-0.8,0.3l-1.9-1.9c0.8-0.6,1.7-1,2.7-1.1V32.9z M95.6,30.2c1,0.1,1.9,0.5,2.7,1.1l-1.9,1.9
		c-0.3-0.2-0.5-0.3-0.8-0.3V30.2z M95.6,41.7v-2.7c0.3-0.1,0.6-0.2,0.8-0.3l1.9,1.9C97.6,41.2,96.6,41.6,95.6,41.7z M99.5,39.5
		l-1.9-1.9c0.1-0.3,0.3-0.5,0.3-0.8h2.7C100.4,37.8,100.1,38.7,99.5,39.5z M97.9,35.2c-0.1-0.3-0.2-0.6-0.3-0.8l1.9-1.9
		c0.6,0.8,1,1.7,1.1,2.7L97.9,35.2L97.9,35.2z"/>
	<g>
		<g>
			<path d="M113.8,25.9c-2.9-8.4-27.1-10.3-27.1-10.3C74.1,8.4,66.5,2.4,52.1,1.4c-11-0.4-22,0.1-33,1.7l-5-0.3
				c-0.1,0-0.2,0.1-0.3,0.2c-0.2,0.2-0.1,0.5,0.1,0.7l1.7,0.9L5,15.3c-1.3,1.1-2,2.6-2.2,4.2l-0.1,4.9c-0.9,0.8-1.4,2-1.2,3.2
				l0.8,4.9c0.4,2.5,2.4,4.3,4.9,4.5c-0.1-1.3,0-2.6,0.3-3.9c1.6-6.2,8-9.9,14.1-8.3c6.2,1.6,9.9,8,8.3,14.1h53.7
				c-0.6-2.1-0.5-4.2,0.1-6.3c1.8-6.1,8.3-9.6,14.4-7.8c6.1,1.8,9.6,8.3,7.8,14.4l2.4-0.3c2.2-0.2,4.2-0.9,6.1-2
				c0.5-0.3,0.7-1,0.5-1.6l-0.3-0.6c0,0,0.6-4.3,0.8-6.5C115.6,27.3,114.9,26.2,113.8,25.9z M84.8,18.4c-0.2,0.2-0.4,0.4-0.7,0.3
				l-65.7-4.2c-1-0.1-1.7-0.9-1.6-1.9c0-0.4,0.2-0.7,0.4-1c1.7-2.2,3.6-4.2,5.7-5.9c8.1-2.2,16.5-3.3,24.8-3.1
				c11.4,0.4,16.7,1.2,23.6,5.6c4.7,3,10.3,6.8,13.3,9C85,17.5,85,18,84.8,18.4z"/>
		</g>
	</g>
	<polygon points="40.1,2.2 42.1,17.4 45.3,17.4 41.9,2.2 	"/>
	<g>
		<path d="M84.6,17.2c0.4,0.3,0.4,0.8,0.2,1.1c-0.2,0.2-0.4,0.3-0.7,0.3l-8.5-0.5l-1.3-8C78.2,12.7,82.2,15.5,84.6,17.2z"/>
	</g>
	<path d="M15.7,4.5L15.7,4.5c0.8,0.7,0.9,2,0.2,2.9c0,0,0,0,0,0L6.4,18c-0.9,1-2.2,1.6-3.6,1.5l0,0c0.1-1.1,0.4-2.1,0.9-3.1
		C6.6,13.1,15.7,4.5,15.7,4.5z"/>
	<path d="M3,31c0.4-0.1,0.8,0.6,0.9,1.4c0.1,0.8-0.1,1.6-0.5,1.6c-0.4,0.1-0.8-0.6-0.9-1.4C2.4,31.8,2.6,31.1,3,31z"/>
	<path d="M72.3,14.7c0.1-1.2,1.3-2.2,2.8-2.1c1.5,0.1,2.6,1.2,2.5,2.4c-0.1,1.2-1.3,2.2-2.8,2.1C73.4,17,72.3,15.9,72.3,14.7z"/>
	<path class="st0" d="M35.9,36.1h43.3c0.6,0,1.2-0.4,1.4-1c2.9-7.1,0.8-16.6,0.7-16.7h-0.2c0,0.1,2.1,9.6-0.7,16.6
		c-0.2,0.5-0.7,0.8-1.3,0.9H35.9c-0.8,0-1.5-0.5-1.8-1.2c-1.1-3.1-4.5-10.4-10.9-12.6c-3.9-1.3-8.3-0.6-13.1,2.4
		c-0.4,0.2-0.8,0.3-1.3,0.3l-6.2-0.4v0.2L8.9,25c0.5,0,0.9-0.1,1.3-0.3c4.7-2.9,9.1-3.7,13-2.3c6.3,2.2,9.6,9.5,10.8,12.5
		C34.3,35.6,35.1,36.1,35.9,36.1z"/>
	<path d="M113.8,25.8H110c-0.6,0-1.3-0.2-1.8-0.7l-5-4.3c-0.2-0.2-0.2-0.5-0.1-0.7c0.1-0.1,0.2-0.1,0.2-0.2c0.9-0.3,1.9-0.3,2.8-0.3
		C106.2,19.7,112.3,21.8,113.8,25.8z"/>
	<path d="M112.5,35.8h-1c-0.7,0-1.3-0.6-1.3-1.3v-1c0-0.7,0.6-1.3,1.3-1.3h1c0.7,0,1.3,0.6,1.3,1.3v1
		C113.8,35.2,113.2,35.8,112.5,35.8z"/>
	<path class="st0" d="M44.9,36.1h0.2c-1.4-4.9-1.8-10-1.2-15c0.2-1.9,0.7-3.8,1.5-5.6h-0.2C45.3,15.5,41.4,23.7,44.9,36.1z"/>
</g>
</svg>
