<?xml version="1.0" encoding="utf-8"?>
<!-- Generator: Adobe Illustrator 22.1.0, SVG Export Plug-In . SVG Version: 6.00 Build 0)  -->
<svg version="1.1" id="Layer_1" xmlns="http://www.w3.org/2000/svg" xmlns:xlink="http://www.w3.org/1999/xlink" x="0px" y="0px"
	 viewBox="0 0 124 42" style="enable-background:new 0 0 124 42;" xml:space="preserve">
<style type="text/css">
	.st0{fill:#FFFFFF;stroke:#FFFFFF;stroke-width:0.15;}
</style>
<path d="M27.6,23c-5-0.1-9.1,3.8-9.2,8.8c0,0.4,0,0.8,0.1,1.1c0.5,4.4,4.2,7.9,8.7,8c4.7,0.1,8.6-3.4,9.1-8c0-0.3,0.1-0.5,0.1-0.8
	C36.5,27.2,32.5,23.1,27.6,23z M22.9,28.5l1.8,1.9c-0.1,0.2-0.3,0.5-0.3,0.8l-2.6-0.1C22,30.1,22.4,29.3,22.9,28.5z M21.8,32.7
	l2.6,0.1c0.1,0.3,0.2,0.5,0.3,0.8l-1.9,1.8C22.3,34.6,21.9,33.7,21.8,32.7z M26.5,37.6c-1-0.2-1.8-0.6-2.6-1.1l1.9-1.8
	c0.2,0.1,0.5,0.3,0.8,0.3L26.5,37.6z M26.7,29c-0.3,0.1-0.6,0.2-0.8,0.3l-1.8-1.9c0.8-0.6,1.7-0.9,2.6-1L26.7,29z M28.3,26.4
	c1,0.2,1.9,0.6,2.6,1.1L29,29.4c-0.2-0.2-0.5-0.3-0.8-0.3L28.3,26.4z M28,37.6l0.1-2.6c0.3-0.1,0.5-0.2,0.8-0.3l1.8,1.9
	C29.9,37.1,29,37.5,28,37.6z M31.8,35.5L30,33.6c0.1-0.2,0.3-0.5,0.4-0.8l2.6,0.1C32.8,33.9,32.4,34.8,31.8,35.5z M30.4,31.3
	c-0.1-0.3-0.2-0.6-0.3-0.8l1.9-1.8c0.6,0.8,0.9,1.7,1,2.6L30.4,31.3L30.4,31.3z"/>
<path d="M102.7,23.1c-5-0.1-9.1,3.8-9.2,8.8c0,0.4,0,0.8,0.1,1.1c0.5,4.4,4.2,7.9,8.7,8c4.7,0.1,8.6-3.4,9.1-8
	c0-0.3,0.1-0.5,0.1-0.8C111.6,27.4,107.6,23.2,102.7,23.1z M98.1,28.6l1.8,1.9c-0.1,0.2-0.3,0.5-0.3,0.8l-2.6-0.1
	C97.1,30.3,97.5,29.4,98.1,28.6z M96.9,32.8l2.6,0.1c0.1,0.3,0.2,0.5,0.3,0.8l-1.9,1.8C97.4,34.7,97,33.8,96.9,32.8z M101.6,37.7
	c-1-0.2-1.8-0.6-2.6-1.1l1.9-1.8c0.2,0.1,0.5,0.3,0.8,0.3L101.6,37.7z M101.8,29.1c-0.3,0.1-0.6,0.2-0.8,0.3l-1.8-1.9
	c0.8-0.6,1.7-0.9,2.6-1L101.8,29.1z M103.4,26.6c1,0.2,1.9,0.6,2.6,1.1l-1.9,1.8c-0.2-0.2-0.5-0.3-0.8-0.3L103.4,26.6z M103.1,37.7
	l0.1-2.6c0.3-0.1,0.5-0.2,0.8-0.3l1.8,1.9C105,37.2,104.1,37.6,103.1,37.7z M106.9,35.6l-1.8-1.9c0.1-0.2,0.3-0.5,0.4-0.8L108,33
	C107.9,34,107.5,34.9,106.9,35.6z M105.5,31.4c-0.1-0.3-0.2-0.6-0.3-0.8l1.9-1.8c0.6,0.8,0.9,1.7,1,2.6L105.5,31.4L105.5,31.4z"/>
<polygon points="2.6,28.1 1.6,28.1 2.9,29.8 4.5,29.8 3.4,28.2 "/>
<path d="M9.6,14.5c-0.4,0.8-1.1,2-1.5,2.8c-0.2,0.3-0.4,0.5-0.8,0.5l-0.6,0c-0.8,0-1.6-0.2-2.3-0.6l-1.2-0.5
	c-0.3-0.2-0.5-0.5-0.5-0.8c0-0.9,0.2-1.8,0.7-2.5l5.9,0.6c0.2,0,0.4,0.2,0.4,0.4C9.7,14.3,9.7,14.4,9.6,14.5z"/>
<path d="M122.1,23.2l-0.8,0c-0.3,0-0.6,0.1-0.8,0.3l-0.3,0.4c-0.2,0.2-0.4,0.3-0.7,0.3l-3.4-0.4c-0.4-0.1-0.9-0.3-1.2-0.6l-2.7-2.6
	c-0.1-0.1-0.1-0.3,0-0.4c0-0.1,0.1-0.1,0.2-0.1c2.6-0.2,5.1,0,7.7,0.4C121.3,20.7,122.2,21.9,122.1,23.2z"/>
<path d="M122.7,29.6l0,1.4c0,1-0.8,1.8-1.8,1.7c0,0,0,0,0,0l-3-0.1c-0.3,0-0.6-0.3-0.6-0.6c0-0.1,0-0.1,0-0.2l1.2-2.3
	c0.2-0.5,0.7-0.8,1.2-0.8l2,0c0.4-0.1,0.8,0.2,0.9,0.6C122.7,29.5,122.7,29.5,122.7,29.6z"/>
<g>
	<g>
		<path d="M123.1,25.7c-0.4-4.6-2-6.9-10.1-9.1c-8.1-2.3-23.1-3-23.1-3C77.7,5.2,68.6,2.6,66.3,2.3c-2.3-0.3-13-1-22.8-1.1
			c-8.4-0.1-22.8,1-26.9,1.3c-0.1,0-0.1,0.1-0.2,0.2c-0.1,0.2,0,0.3,0.2,0.4l1.1,0.8c0,0-10.5,6.6-12.4,7.6c-1.9,0.9-1.9,2-1.9,2
			l0.6,3.7l-1.5,4.7l-1.2,0.7c-0.4,0.2-0.7,0.7-0.7,1.2l0,1.6c0,0.6,0.2,1.2,0.7,1.6L3.5,29c0.8,0.8,1.8,1.3,2.9,1.5L17,32.3
			c-0.1-0.6-0.2-1.3-0.1-1.9c0.6-5,4.7-9,9.8-9.4c5.9-0.5,11.2,3.9,11.7,9.8c0,0.8-0.1,1.6-0.3,2.3l53.7,1.3c0,0,0-2.1,0.1-3.1
			c0.1-5.8,4.9-10.4,10.7-10.3c5.8,0.1,10.4,4.9,10.3,10.7c0,1.1-0.2,3-0.2,3c3.6,0,7.2-0.5,10.7-1.4
			C123.5,33.3,123.1,25.7,123.1,25.7z M10.6,11.9c0,0,6.9-4.6,10.4-6.3c3.5-1.7,12.3-1.8,15.4-2C43.8,3.1,56.2,2.1,66,4.1
			c9.8,2,20,10.4,20,10.4L10.6,11.9z"/>
	</g>
</g>
<polygon points="37.3,3.2 31.5,12.6 34.6,12.8 35.5,11.4 41,2.7 "/>
<polygon points="52.9,2.5 55.2,13.4 61.1,13.5 56.9,2.5 "/>
<path class="st0" d="M92,32.7l0-0.1l-47.4-1.8c-1.9-0.1-3.5-1.1-4.4-2.7l-5.5-11c-0.5-1.4-0.4-2.9,0.1-4.2l5.9-9.3
	c5.9-0.5,11.9-0.6,17.8-0.2l0-0.1c-6-0.4-12-0.3-18,0.2l0,0l-5.9,9.3C34,14,34,15.6,34.5,17L40,28.1c0.9,1.7,2.7,2.7,4.6,2.8
	L92,32.7z"/>
<path class="st0" d="M59.2,31.3c0.4-3,0.6-6,0.7-8.9c0.2-3.1-0.4-6.2-1.6-9L55.1,3l-0.1,0l3.3,10.5c1.2,2.8,1.7,5.9,1.5,9
	c-0.1,5.6-0.7,8.9-0.7,8.9L59.2,31.3z"/>
<polygon points="82.3,11.7 81.1,14.3 86.1,14.5 84.4,13.2 "/>
<path class="st0" d="M87.7,32.4c0,0,0.6-7.2,0.8-12.5c0-2.1-0.8-4.1-2.4-5.5l0,0l-51.2-1.8l0,0.1l51.2,1.8c1.5,1.4,2.3,3.4,2.3,5.4
	C88.3,25.3,87.6,32.4,87.7,32.4L87.7,32.4z"/>
<path d="M78.6,12.4c0.1-0.8,1.1-1.3,2.1-1.1c1.1,0.2,1.8,0.9,1.7,1.7c-0.1,0.8-1.1,1.3-2.1,1.1C79.2,13.9,78.5,13.1,78.6,12.4z"/>
</svg>
