<?xml version="1.0" encoding="utf-8"?>
<!-- Generator: Adobe Illustrator 22.1.0, SVG Export Plug-In . SVG Version: 6.00 Build 0)  -->
<svg version="1.1" id="Layer_1" xmlns="http://www.w3.org/2000/svg" xmlns:xlink="http://www.w3.org/1999/xlink" x="0px" y="0px"
	 viewBox="0 0 118 47" style="enable-background:new 0 0 118 47;" xml:space="preserve">
<style type="text/css">
	.st0{fill:#FFFFFF;}
</style>
<g>
	<path d="M28.5,25c-5.6,0-10.2,4.6-10.2,10.2c0,0.4,0,0.9,0.1,1.3c0.6,5,4.9,8.9,10.1,8.9c5.4,0,9.7-4.1,10.2-9.4c0-0.3,0-0.6,0-0.9
		C38.7,29.6,34.2,25,28.5,25z M23.4,31.4l2.1,2.1c-0.2,0.3-0.3,0.6-0.4,0.9h-2.9C22.3,33.3,22.7,32.3,23.4,31.4z M22.1,36.2h3
		c0.1,0.3,0.2,0.6,0.4,0.9l-2.1,2.1C22.7,38.3,22.3,37.3,22.1,36.2z M27.6,41.6c-1.1-0.2-2.1-0.6-3-1.2l2.1-2.1
		c0.3,0.2,0.6,0.3,0.9,0.4V41.6z M27.6,31.9c-0.3,0.1-0.6,0.2-0.9,0.4l-2.1-2.1c0.9-0.6,1.9-1.1,3-1.2V31.9z M29.4,28.9
		c1.1,0.2,2.1,0.6,3,1.2l-2.1,2.1c-0.3-0.2-0.6-0.3-0.9-0.4V28.9z M29.4,41.6v-3c0.3-0.1,0.6-0.2,0.9-0.4l2.1,2.1
		C31.5,41,30.5,41.5,29.4,41.6z M33.6,39.2l-2.1-2.1c0.2-0.3,0.3-0.6,0.4-0.9h2.9C34.7,37.3,34.3,38.3,33.6,39.2z M31.9,34.4
		c-0.1-0.3-0.2-0.6-0.4-0.9l2.1-2.1c0.6,0.9,1.1,1.9,1.2,3L31.9,34.4L31.9,34.4z"/>
	<path d="M98.9,25.3c-5.6,0-10.2,4.6-10.2,10.2c0,0.4,0,0.9,0.1,1.3c0.6,5,4.9,8.9,10.1,8.9c5.4,0,9.7-4.1,10.2-9.4
		c0-0.3,0-0.6,0-0.9C109.2,29.9,104.6,25.3,98.9,25.3z M93.8,31.7l2.1,2.1c-0.2,0.3-0.3,0.6-0.4,0.9h-2.9
		C92.7,33.6,93.2,32.5,93.8,31.7z M92.6,36.4h3c0.1,0.3,0.2,0.6,0.4,0.9l-2.1,2.1C93.2,38.6,92.7,37.6,92.6,36.4z M98,41.9
		c-1.1-0.2-2.1-0.6-3-1.2l2.1-2.1c0.3,0.2,0.6,0.3,0.9,0.4V41.9z M98,32.1c-0.3,0.1-0.6,0.2-0.9,0.4l-2.1-2.1c0.9-0.6,1.9-1.1,3-1.2
		V32.1z M99.8,29.2c1.1,0.2,2.1,0.6,3,1.2l-2.1,2.1c-0.3-0.2-0.6-0.3-0.9-0.4V29.2z M99.8,41.9v-3c0.3-0.1,0.6-0.2,0.9-0.4l2.1,2.1
		C101.9,41.3,100.9,41.7,99.8,41.9z M104.1,39.4l-2.1-2.1c0.2-0.3,0.3-0.6,0.4-0.9h2.9C105.1,37.6,104.7,38.6,104.1,39.4z
		 M102.3,34.7c-0.1-0.3-0.2-0.6-0.4-0.9l2.1-2.1c0.6,0.9,1.1,1.9,1.2,3L102.3,34.7L102.3,34.7z"/>
	<path d="M114.3,25h-3.5v-4.9h2.9c0.8,1.5,1.3,3.2,1.4,4.9H114.3z M8.4,18.5H4l-0.2,6.7h4.6V18.5z"/>
	<polygon points="81.8,29.7 86.5,29.7 86.5,19.6 82.4,19.6 82.4,21.5 82.4,24.7 82.2,27.9 	"/>
	<g>
		<g>
			<path d="M115.8,25h-0.7c-0.3-7.4-6.1-8.3-6.1-8.3l-23.7-2L71.2,4.4C68.3,2.2,64.7,1,61,1H16.6c-0.8,0-1.5,0.3-1.9,0.9L4.7,14.9
				c-0.5,0.6-0.8,1.4-0.8,2.2l-0.3,8.1H2.7c0,0,0,0,0,0c-0.8,0.2-1.4,1.1-1.1,1.9l0.8,2.7c0.3,1.1,1.3,2,2.4,2.1l11.1,1.5
				c0.6,0.1,1.1-0.3,1.3-0.8c1.5-5.3,6.4-8.8,11.9-8.6c8.1,0.2,10.7,7.4,11.4,10c0.2,0.5,0.6,0.9,1.2,0.9h44.1
				c0.4,0,0.8-0.3,0.9-0.7C89.4,22.3,99,23.4,99,23.4c11,0.4,11.3,8.9,11.1,11.7c0,0.5,0.4,0.8,0.8,0.8h1.9c0.9,0,1.7-0.5,2.1-1.2
				l0.9-1.7c0.6-1,0.8-2.2,0.8-3.4V26C116.7,25.5,116.3,25,115.8,25z M6.9,14.2c0.9-0.6,7.2-9.3,8.9-11.7c0.3-0.4,0.7-0.6,1.1-0.6
				h14.9l-1.5,12.6L6.9,14.2z M31.6,14.5l1.3-12.6h17.9l3.1,12.7L31.6,14.5z M55,14.6L51.6,1.9h8.7c3.6,0,7.2,1.1,10.1,3.3l12.9,9.4
				H55z"/>
		</g>
	</g>
	<path d="M77.2,10.1l-2.8,4.6h9.2L77.2,10.1z"/>
	<path d="M73.8,12.4c0.1-1,1.1-1.8,2.4-1.7c1.2,0.1,2.2,1,2.1,2c-0.1,1-1.1,1.8-2.4,1.7C74.7,14.4,73.7,13.5,73.8,12.4z"/>
	<g>
		<path class="st0" d="M113.8,20.1V20c-17-0.4-109.1-1.7-110-1.7v0.2C4.7,18.5,96.8,19.7,113.8,20.1z M88.9,14.7v-0.1h-40L5.1,14.1
			v0.1l43.8,0.5H88.9z"/>
		<path class="st0" d="M80.4,35c1.2-3.1,1.9-6.3,2-9.6c0.2-2.6,0.1-5.3-0.3-7.8c-0.2-1-0.4-2-0.7-2.9h-0.1c1,3.5,1.3,7.1,0.9,10.7
			C82.2,28.6,81.6,31.9,80.4,35L80.4,35z"/>
		<path class="st0" d="M38.6,29.6h49.7v0.2H38.6V29.6z"/>
	</g>
</g>
</svg>
